# xmcd CD database file
#
# Track frame offsets:
#	150
#	23046
#	52069
#	82812
#	85126
#	111391
#	133496
#	155067
#	182534
#
# Disc length: 2724 seconds
#
# Revision: 0
# Processed by: cddbd v1.5.1PL0 Copyright (c) Steve Scherf et al.
# Submitted via: CDex 1.60beta1
#
DISCID=740aa209
DTITLE=Ken Ishii and Daniel Smith - Catch Phrases
DYEAR=2000
DGENRE=Jazz
TTITLE0=Waxahachie Hwy.
TTITLE1=Catch Phrases
TTITLE2=Slack
TTITLE3=Catch Phrases (Reprise)
TTITLE4=No Lo Note (I Didn't Notice)
TTITLE5=Write Your Own
TTITLE6=Night Sighs
TTITLE7=Minimalist Time Lapse
TTITLE8=Chaser
EXTD=YEAR: 2000
EXTT0=
EXTT1=
EXTT2=
EXTT3=
EXTT4=
EXTT5=
EXTT6=
EXTT7=
EXTT8=
PLAYORDER=
